<?xml version="1.0" encoding="utf-8"?>
<!-- Generator: Adobe Illustrator 28.1.0, SVG Export Plug-In . SVG Version: 6.00 Build 0)  -->
<svg version="1.1" id="Layer_1" xmlns="http://www.w3.org/2000/svg" xmlns:xlink="http://www.w3.org/1999/xlink" x="0px" y="0px"
	 viewBox="0 0 524 512" style="enable-background:new 0 0 524 512;" xml:space="preserve">
<style type="text/css">
	.st0{display:none;fill:#FFFFFF;stroke:#003249;stroke-width:1.0374;stroke-miterlimit:10;}
	.st1{fill:none;stroke:#000000;stroke-width:1.022;stroke-miterlimit:10;}
	.st2{fill:#F0F7EE;stroke:#F0F7EE;stroke-width:15;stroke-miterlimit:10;}
	.st3{fill:none;}
	.st4{fill:#003249;stroke:#003249;stroke-miterlimit:10;}
	.st5{font-family:'Lato-Black';}
	.st6{font-size:400px;}
	.st7{font-size:293px;}
	.st8{letter-spacing:-26;}
</style>
<ellipse class="st0" cx="-294" cy="256" rx="262" ry="190.5"/>
<circle class="st1" cx="-112.5" cy="16.5" r="3"/>
<g>
	
		<image style="overflow:visible;opacity:0.75;" width="599" height="462" xlink:href="BE21801E.png"  transform="matrix(1 0 0 1 -14 66)">
	</image>
	<g>
		<g>
			<g>
				<g>
					<path class="st2" d="M240.6,317.3c1.6,0,3.2,0.2,4.8,0.7s3.1,1.2,4.6,2.3l26.8,21.1c-11.7,11.5-26.4,20.2-44.1,26
						c-17.7,5.8-38.6,8.8-62.7,8.8c-22.1,0-42-2.8-59.5-8.5c-17.5-5.6-32.4-13.4-44.6-23.4c-12.2-9.9-21.6-21.8-28.1-35.4
						c-6.5-13.7-9.8-28.5-9.8-44.5c0-16.3,3.7-31.3,11.2-44.9c7.5-13.7,17.9-25.4,31.3-35.3c13.4-9.9,29.4-17.6,48.1-23.1
						c18.7-5.5,39.3-8.2,61.8-8.2c10.9,0,21.2,0.7,30.9,2.2c9.7,1.5,18.7,3.4,27.1,6c8.4,2.5,16.1,5.6,23.2,9.1
						c7.1,3.6,13.3,7.5,18.8,11.8l-22.8,23c-1.5,1.4-3.2,2.7-5.2,3.8c-2,1.2-4.8,1.7-8.4,1.7c-2.4,0-4.7-0.4-6.8-1.2
						c-2.1-0.8-4.4-1.8-6.8-2.9c-2.4-1.1-5-2.4-7.9-3.8c-2.9-1.4-6.3-2.6-10.2-3.8c-3.9-1.1-8.5-2.1-13.8-2.9
						c-5.3-0.8-11.4-1.2-18.5-1.2c-12.3,0-23.5,1.6-33.6,4.9c-10.1,3.3-18.8,7.9-26.1,14c-7.3,6.1-12.9,13.4-17,22
						c-4.1,8.6-6.1,18.3-6.1,29c0,11.2,2,21.1,6.1,29.8c4.1,8.7,9.6,16,16.6,22c7,6,15.2,10.5,24.5,13.6c9.3,3.1,19.3,4.7,30,4.7
						c6.1,0,11.7-0.2,16.8-0.7c5.1-0.5,9.8-1.2,14.1-2.3c4.3-1.1,8.5-2.5,12.4-4.3c3.9-1.7,7.9-3.9,11.9-6.5c1.6-1,3.3-1.8,5.2-2.5
						C236.7,317.7,238.6,317.3,240.6,317.3z"/>
				</g>
				<g>
					<path class="st2" d="M462.2,342.4h-49.8v-67.7h-86.7v67.7h-49.8V182.3h49.8v66.9h86.7v-66.9h49.8V342.4z"/>
				</g>
			</g>
			<rect x="20.8" y="74.4" class="st3" width="304" height="322.5"/>
			<text transform="matrix(1 0 0 0.75 20.7923 374.0322)" class="st4 st5 st6">C</text>
			<rect x="258.3" y="123.1" class="st3" width="304.5" height="381.9"/>
			<text transform="matrix(1 0 0 0.75 258.2786 342.5731)"><tspan x="0" y="0" class="st4 st5 st7">H</tspan><tspan x="221.5" y="0" class="st4 st5 st7 st8">	</tspan></text>
		</g>
	</g>
</g>
</svg>
