<?xml version="1.0" encoding="utf-8"?>
<!-- Generator: Adobe Illustrator 28.1.0, SVG Export Plug-In . SVG Version: 6.00 Build 0)  -->
<svg version="1.1" id="Layer_1" xmlns="http://www.w3.org/2000/svg" xmlns:xlink="http://www.w3.org/1999/xlink" x="0px" y="0px"
	 viewBox="0 0 524 512" style="enable-background:new 0 0 524 512;" xml:space="preserve">
<style type="text/css">
	.st0{display:none;fill:#FFFFFF;stroke:#003249;stroke-width:1.0374;stroke-miterlimit:10;}
	.st1{fill:none;}
	.st2{fill:none;stroke:#000000;stroke-width:1.022;stroke-miterlimit:10;}
	.st3{fill:#003249;stroke:#F0F7EE;stroke-width:10.4886;stroke-miterlimit:10;}
	.st4{fill:#003249;stroke:#F0F7EE;stroke-width:8.4431;stroke-miterlimit:10;}
</style>
<ellipse class="st0" cx="-294" cy="256" rx="262" ry="190.5"/>
<rect x="-31.7" y="311.4" class="st1" width="3.9" height="0.8"/>
<circle class="st2" cx="443.5" cy="16.5" r="3"/>
<circle class="st2" cx="-112.5" cy="16.5" r="3"/>
<g>
	<g>
		<g>
			<g>
				<g>
					<path class="st3" d="M251.8,25.4c5,2.3,6.8,8.1,4,12.8l-37.6,64c-2.8,4.7-9.5,7.6-14.8,6.5c0,0-19.6-4.3-36.5-4.3
						c-24.2,0-36.3,5.9-36.3,17.6c0,5.6,3.4,10,10.1,13.2c6.8,3.2,16.4,4.8,28.8,4.8c16.9,0,34-5.2,34-5.2c5.3-1.6,11.7,1,14.4,5.9
						l38.1,69.6c2.6,4.8,0.7,10.6-4.4,12.8c0,0-20.6,9-39.8,13.3s-37.4,6.5-54.8,6.5c-43.7,0-78.6-11.3-104.5-33.9
						s-38.9-50.3-38.9-83.3c0-34.9,13.5-63.7,40.5-86.3c27-22.7,61.3-34,102.9-34c18,0,36.6,2.2,55.7,6.6
						C232,16.3,251.8,25.4,251.8,25.4z"/>
				</g>
			</g>
			<g id="H_00000092426940492693114850000001155149781531059114_">
				<g>
					<path class="st4" d="M352.5,206.1c0,5.5-4.5,10-10,10h-71.8c-5.5,0-10-4.5-10-10V40.9c0-5.5,4.5-10,10-10h71.8
						c5.5,0,10,4.5,10,10v47.8c0,5.5,4.5,10,10,10h26.7c5.5,0,10-4.5,10-10V40.9c0-5.5,4.5-10,10-10H481c5.5,0,10,4.5,10,10v165.2
						c0,5.5-4.5,10-10,10h-71.8c-5.5,0-10-4.5-10-10v-48.8c0-5.5-4.5-10-10-10h-26.7c-5.5,0-10,4.5-10,10V206.1L352.5,206.1z"/>
				</g>
			</g>
		</g>
	</g>
</g>
<rect x="142" y="246" class="st1" width="244" height="171"/>
<rect x="8.9" y="-174.4" class="st1" width="566.1" height="616.6"/>
<rect x="247.5" y="-38.6" class="st1" width="331.1" height="760.8"/>
</svg>
